<?xml version="1.0" encoding="UTF-8"?>
<svg id="Layer_1" xmlns="http://www.w3.org/2000/svg" version="1.1" viewBox="0 0 160 100">
  <!-- Generator: Adobe Illustrator 29.7.1, SVG Export Plug-In . SVG Version: 2.1.1 Build 8)  -->
  <defs>
    <style>
      .st0 {
        fill: #cc2229;
      }
    </style>
  </defs>
  <path class="st0" d="M16.3,57.1c2.4,3.9,6.8,6.6,11.7,6.6,7.2,0,11.2-6.3,11.2-6.3l.5,1.7c-3.4,4.4-9.3,7-16,7s-14.4-3.7-17.4-9c-1.2-2-1.8-4.2-1.8-6.6,0-8.6,8.6-15.6,19.2-15.6s13.5,3.2,16.7,7.9l-12.6,7.5,7.2-11c-2.1-1.3-4.6-2.5-7.2-2.5-7.4,0-13.4,6.2-13.4,13.5s.7,4.8,1.9,6.8ZM50.1,57.1c0,.3,0,.5,0,.8,0,2.8,2.3,5.1,5.1,5.1s5.1-2.3,5.1-5.1c0-.3,0-.5,0-.8-.4-2.4-2.5-4.3-5-4.3s-4.6,1.9-5,4.3h0ZM68.9,57.1l2.5,8.5h-8.8l-1.7-5.8c-1.2,3.3-5.1,5.8-9.8,5.8s-10.1-3.5-10.1-7.9,0-.4,0-.6c.4-4.1,4.8-7.3,10.1-7.3s5.7,1,7.6,2.7l-2.4-8h-10.1s1.7-1,9.2-3.7c7.5-2.7,9.9,3.7,9.9,3.7l3.8,12.6h0ZM97.1,57.1v8.5h-9.1v-18.6c0-1.4-1.1-2.5-2.5-2.5h0c-1,0-1.9.6-2.3,1.6v19.5h-8.9v-21.1h-5.2s7.2-4.4,9.7-4.4,4.1,1.8,4.4,4.2c3.5-1.9,7-4.2,9.4-4.2s4.5,2,4.5,4.4v12.6h0ZM111.1,57.1l1.3,4.2c0,1.8,1.5,3.2,3.3,3.2s3.3-1.5,3.3-3.3,0-.3,0-.4l-1.1-3.7-3.8-12.9c-.2-1.7-1.6-3-3.3-3s-3.3,1.6-3.5,3.2l3.8,12.6h0ZM125.6,57.1c-1.7,5.2-6.6,9-12.4,9s-10.7-3.8-12.4-9c-.4-1.3-.7-2.7-.7-4.1,0-7.2,5.9-13.1,13.1-13.1s13.1,5.9,13.1,13.1-.2,2.8-.7,4.1ZM140.6,57.1v8.5h-8.9v-21.1h-5s7-4.4,9.5-4.4,4.1,1.8,4.4,4.2c3.5-1.9,7-4.2,9.4-4.2s4.5,2,4.5,4.4v21.1h-9.1v-18.6c0-1.4-1.1-2.5-2.5-2.5h0c-1,0-1.9.6-2.3,1.6v11.1h0Z"/>
</svg>